<svg width="97" height="98" viewBox="0 0 97 98" fill="none" xmlns="http://www.w3.org/2000/svg">
<path d="M37.2632 4.18044C39.1546 3.77159 40.8244 4.04742 41.8883 5.11142C44.2082 7.43154 42.7798 12.6186 38.6966 16.6972C34.6133 20.7759 29.4316 22.2094 27.1117 19.8892C24.7918 17.5691 26.2202 12.3821 30.3034 8.30345M54 33L95 74M76 57H54M34 12L24 2M27 20.2024L40.7295 33.9315C42.9594 36.1613 47.9446 34.7884 51.8646 30.8638C55.7846 26.9392 57.1623 21.9588 54.9325 19.729L41.2029 6M46 74.8846C46 86.6154 38.6667 96 24 96C11.8511 96 2 88.9615 2 77.2308C2 67.8462 9.33333 65.5 9.33333 58.4615C9.33333 53.7692 6.88889 51.4231 6.88889 51.4231C11.7778 51.4231 21.5556 53.7692 16.6667 70.1923C16.6667 70.1923 26.4444 70.1923 26.4444 58.4615C26.4444 49.0769 14.2222 46.7308 24 35C24 46.7308 46 49.0769 46 74.8846Z" stroke="#345E40" stroke-width="4" stroke-linecap="round" stroke-linejoin="round"/>
</svg>
