<svg width="104" height="59" viewBox="0 0 104 59" fill="none" xmlns="http://www.w3.org/2000/svg">
<path fill-rule="evenodd" clip-rule="evenodd" d="M37.1429 50.5714C37.1429 49.5914 37.9254 48.797 38.8908 48.797H73.8487C74.8141 48.797 75.5966 49.5914 75.5966 50.5714C75.5966 51.5514 74.8141 52.3459 73.8487 52.3459H38.8908C37.9254 52.3459 37.1429 51.5514 37.1429 50.5714Z" fill="#345E40"/>
<path fill-rule="evenodd" clip-rule="evenodd" d="M23.5966 45.6917C20.9419 45.6917 18.7899 47.8764 18.7899 50.5714C18.7899 53.2664 20.9419 55.4511 23.5966 55.4511C26.2513 55.4511 28.4033 53.2664 28.4033 50.5714C28.4033 47.8764 26.2513 45.6917 23.5966 45.6917ZM15.2941 50.5714C15.2941 45.9165 19.0113 42.1429 23.5966 42.1429C28.182 42.1429 31.8991 45.9165 31.8991 50.5714C31.8991 55.2264 28.182 59 23.5966 59C19.0113 59 15.2941 55.2264 15.2941 50.5714Z" fill="#345E40"/>
<path fill-rule="evenodd" clip-rule="evenodd" d="M80.4034 45.6917C77.7487 45.6917 75.5966 47.8764 75.5966 50.5714C75.5966 53.2664 77.7487 55.4511 80.4034 55.4511C83.058 55.4511 85.2101 53.2664 85.2101 50.5714C85.2101 47.8764 83.058 45.6917 80.4034 45.6917ZM72.1008 50.5714C72.1008 45.9165 75.818 42.1429 80.4034 42.1429C84.9887 42.1429 88.7059 45.9165 88.7059 50.5714C88.7059 55.2264 84.9887 59 80.4034 59C75.818 59 72.1008 55.2264 72.1008 50.5714Z" fill="#345E40"/>
<path fill-rule="evenodd" clip-rule="evenodd" d="M90.6554 13.4448C91.5465 13.0678 92.5699 13.4956 92.9412 14.4002L103.866 41.0168C104.104 41.5967 104.022 42.2613 103.65 42.7639L97.0958 51.6361C96.7657 52.0829 96.2476 52.3459 95.6975 52.3459H86.958C85.9926 52.3459 85.2101 51.5514 85.2101 50.5714C85.2101 49.5914 85.9926 48.797 86.958 48.797H94.8235L100.254 41.4458L89.7143 15.7652C89.343 14.8606 89.7644 13.8217 90.6554 13.4448Z" fill="#345E40"/>
<path fill-rule="evenodd" clip-rule="evenodd" d="M78.2185 13.3083C79.1838 13.3083 79.9664 14.1027 79.9664 15.0827V31.0526H97.8823C98.8477 31.0526 99.6302 31.8471 99.6302 32.8271C99.6302 33.8071 98.8477 34.6015 97.8823 34.6015H78.2185C77.2532 34.6015 76.4706 33.8071 76.4706 32.8271V15.0827C76.4706 14.1027 77.2532 13.3083 78.2185 13.3083Z" fill="#345E40"/>
<path fill-rule="evenodd" clip-rule="evenodd" d="M2.43177 2.46869C3.98878 0.888033 6.10054 0 8.30252 0H89.1428V1.77444C89.1428 0 89.1433 1.05765e-07 89.1438 2.11529e-07L89.1486 6.66317e-06L89.1592 3.93444e-05L89.1945 0.000260816C89.2242 0.000503545 89.266 0.000971131 89.3191 0.00187098C89.4255 0.00367003 89.5774 0.00719993 89.7685 0.014127C90.1502 0.0279679 90.6902 0.0554455 91.3363 0.1101C92.6206 0.218755 94.36 0.437718 96.1213 0.884747C97.858 1.32551 99.7546 2.02165 101.252 3.1621C102.8 4.34002 104 6.06794 104 8.42857C104 11.8253 101.394 13.3617 99.5275 13.9935C98.5532 14.3232 97.6038 14.4812 96.9146 14.5589C96.5656 14.5983 96.2725 14.6183 96.0622 14.6284C95.9568 14.6335 95.8716 14.6362 95.8099 14.6376C95.779 14.6383 95.7539 14.6387 95.735 14.6389L95.7114 14.6391L95.7032 14.6391L95.6986 14.6391C95.698 14.6391 95.6974 14.6391 95.6974 12.8647V14.6391H69.4789C68.5136 14.6391 67.731 13.8447 67.731 12.8647C67.731 11.8847 68.5136 11.0902 69.4789 11.0902H95.6954H95.6964L95.6974 11.0902C95.7034 11.0901 95.7151 11.09 95.7322 11.0896C95.7664 11.0888 95.8221 11.0871 95.8959 11.0836C96.0441 11.0764 96.2631 11.0617 96.5285 11.0318C97.0684 10.9709 97.7576 10.8516 98.422 10.6268C99.8323 10.1495 100.504 9.46794 100.504 8.42857C100.504 7.46214 100.066 6.69475 99.155 6.0012C98.1949 5.27018 96.8141 4.71866 95.2735 4.32766C93.7576 3.94292 92.2196 3.746 91.046 3.64671C90.463 3.5974 89.9789 3.57289 89.6437 3.56074C89.4763 3.55467 89.3466 3.5517 89.2609 3.55025C89.2181 3.54953 89.1863 3.54918 89.1663 3.54902L89.1454 3.54888L89.1428 3.54887H8.30252C7.02771 3.54887 5.80511 4.06299 4.90367 4.97812C4.00222 5.89325 3.4958 7.13441 3.4958 8.42857V48.797H17.042C18.0073 48.797 18.7899 49.5914 18.7899 50.5714C18.7899 51.5514 18.0073 52.3459 17.042 52.3459H1.7479C0.782561 52.3459 0 51.5514 0 50.5714V8.42857C0 6.19316 0.874752 4.04934 2.43177 2.46869Z" fill="#345E40"/>
<path fill-rule="evenodd" clip-rule="evenodd" d="M43.6975 12.8647C43.6975 11.8847 44.4801 11.0902 45.4454 11.0902H60.7395C61.7048 11.0902 62.4874 11.8847 62.4874 12.8647V50.5714C62.4874 51.5514 61.7048 52.3459 60.7395 52.3459H45.4454C44.4801 52.3459 43.6975 51.5514 43.6975 50.5714V12.8647ZM47.1933 14.6391V48.797H58.9916V14.6391H47.1933Z" fill="#345E40"/>
<path fill-rule="evenodd" clip-rule="evenodd" d="M13.1092 12.8647C13.1092 11.8847 13.8918 11.0902 14.8571 11.0902H34.521C35.4863 11.0902 36.2689 11.8847 36.2689 12.8647V26.1729C36.2689 27.1529 35.4863 27.9474 34.521 27.9474H14.8571C13.8918 27.9474 13.1092 27.1529 13.1092 26.1729V12.8647ZM16.605 14.6391V24.3985H32.7731V14.6391H16.605Z" fill="#345E40"/>
</svg>
