<svg width="62" height="59" viewBox="0 0 62 59" fill="none" xmlns="http://www.w3.org/2000/svg">
<path fill-rule="evenodd" clip-rule="evenodd" d="M0 57.5952C0 56.8194 0.630871 56.1905 1.40909 56.1905H25.3636C26.1419 56.1905 26.7727 56.8194 26.7727 57.5952C26.7727 58.3711 26.1419 59 25.3636 59H1.40909C0.630871 59 0 58.3711 0 57.5952Z" fill="#345E40"/>
<path fill-rule="evenodd" clip-rule="evenodd" d="M8.45455 46.3571C9.23277 46.3571 9.86364 46.9861 9.86364 47.7619V57.5952C9.86364 58.3711 9.23277 59 8.45455 59C7.67633 59 7.04545 58.3711 7.04545 57.5952V47.7619C7.04545 46.9861 7.67633 46.3571 8.45455 46.3571Z" fill="#345E40"/>
<path fill-rule="evenodd" clip-rule="evenodd" d="M53.5455 46.3571C54.3237 46.3571 54.9545 46.9861 54.9545 47.7619V57.5952C54.9545 58.3711 54.3237 59 53.5455 59C52.7672 59 52.1364 58.3711 52.1364 57.5952V47.7619C52.1364 46.9861 52.7672 46.3571 53.5455 46.3571Z" fill="#345E40"/>
<path fill-rule="evenodd" clip-rule="evenodd" d="M53.5455 36.5238C54.3237 36.5238 54.9545 37.1527 54.9545 37.9286V47.7619C54.9545 48.5377 54.3237 49.1667 53.5455 49.1667H38.0455C37.2672 49.1667 36.6364 48.5377 36.6364 47.7619C36.6364 46.9861 37.2672 46.3571 38.0455 46.3571H52.1364V37.9286C52.1364 37.1527 52.7672 36.5238 53.5455 36.5238Z" fill="#345E40"/>
<path fill-rule="evenodd" clip-rule="evenodd" d="M8.45455 36.5238C9.23277 36.5238 9.86364 37.1527 9.86364 37.9286V46.3571H23.9545C24.7328 46.3571 25.3636 46.9861 25.3636 47.7619C25.3636 48.5377 24.7328 49.1667 23.9545 49.1667H8.45455C7.67633 49.1667 7.04545 48.5377 7.04545 47.7619V37.9286C7.04545 37.1527 7.67633 36.5238 8.45455 36.5238Z" fill="#345E40"/>
<path fill-rule="evenodd" clip-rule="evenodd" d="M23.9545 28.0952C23.9545 27.3194 24.5854 26.6905 25.3636 26.6905H53.5455C54.3237 26.6905 54.9545 27.3194 54.9545 28.0952V37.9286C54.9545 38.7044 54.3237 39.3333 53.5455 39.3333H36.6364C35.8581 39.3333 35.2273 38.7044 35.2273 37.9286C35.2273 37.1527 35.8581 36.5238 36.6364 36.5238H52.1364V29.5H25.3636C24.5854 29.5 23.9545 28.8711 23.9545 28.0952Z" fill="#345E40"/>
<path fill-rule="evenodd" clip-rule="evenodd" d="M7.04545 28.0952C7.04545 27.3194 7.67633 26.6905 8.45455 26.6905H25.3636C26.1419 26.6905 26.7727 27.3194 26.7727 28.0952C26.7727 28.8711 26.1419 29.5 25.3636 29.5H9.86364V36.5238H25.3636C26.1419 36.5238 26.7727 37.1527 26.7727 37.9286C26.7727 38.7044 26.1419 39.3333 25.3636 39.3333H8.45455C7.67633 39.3333 7.04545 38.7044 7.04545 37.9286V28.0952Z" fill="#345E40"/>
<path fill-rule="evenodd" clip-rule="evenodd" d="M30.0924 0.330244C30.6168 -0.110081 31.3831 -0.110081 31.9076 0.330244L58.6804 22.8064C59.2756 23.3062 59.3518 24.1924 58.8506 24.7858C58.3493 25.3793 57.4603 25.4552 56.8651 24.9555L31 3.24127L5.13492 24.9555C4.53965 25.4552 3.65072 25.3793 3.14944 24.7858C2.64816 24.1924 2.72436 23.3062 3.31962 22.8064L30.0924 0.330244Z" fill="#345E40"/>
<path fill-rule="evenodd" clip-rule="evenodd" d="M43.7918 1.40476C43.7918 0.628933 44.4226 0 45.2009 0H53.5455C54.3237 0 54.9546 0.628933 54.9546 1.40476V19.6667C54.9546 20.4425 54.3237 21.0714 53.5455 21.0714C52.7673 21.0714 52.1364 20.4425 52.1364 19.6667V2.80952H46.6099V7.02381C46.6099 7.79964 45.9791 8.42857 45.2009 8.42857C44.4226 8.42857 43.7918 7.79964 43.7918 7.02381V1.40476Z" fill="#345E40"/>
<path fill-rule="evenodd" clip-rule="evenodd" d="M53.5455 19.6667C54.3237 19.6667 54.9545 20.2956 54.9545 21.0714V28.0952C54.9545 28.8711 54.3237 29.5 53.5455 29.5C52.7672 29.5 52.1364 28.8711 52.1364 28.0952V21.0714C52.1364 20.2956 52.7672 19.6667 53.5455 19.6667Z" fill="#345E40"/>
<path fill-rule="evenodd" clip-rule="evenodd" d="M31 12.6429C28.6653 12.6429 26.7727 14.5297 26.7727 16.8571C26.7727 19.1846 28.6653 21.0714 31 21.0714C33.3347 21.0714 35.2273 19.1846 35.2273 16.8571C35.2273 14.5297 33.3347 12.6429 31 12.6429ZM23.9545 16.8571C23.9545 12.978 27.1089 9.83333 31 9.83333C34.8911 9.83333 38.0455 12.978 38.0455 16.8571C38.0455 20.7363 34.8911 23.881 31 23.881C27.1089 23.881 23.9545 20.7363 23.9545 16.8571Z" fill="#345E40"/>
<path fill-rule="evenodd" clip-rule="evenodd" d="M22.5455 37.9286C22.5455 37.1527 23.1763 36.5238 23.9545 36.5238H38.0455C38.8237 36.5238 39.4545 37.1527 39.4545 37.9286V57.5952C39.4545 58.3711 38.8237 59 38.0455 59H23.9545C23.1763 59 22.5455 58.3711 22.5455 57.5952V37.9286ZM25.3636 39.3333V56.1905H36.6364V39.3333H25.3636Z" fill="#345E40"/>
<path fill-rule="evenodd" clip-rule="evenodd" d="M35.2273 57.5952C35.2273 56.8194 35.8581 56.1905 36.6364 56.1905H60.5909C61.3691 56.1905 62 56.8194 62 57.5952C62 58.3711 61.3691 59 60.5909 59H36.6364C35.8581 59 35.2273 58.3711 35.2273 57.5952Z" fill="#345E40"/>
</svg>
