<svg width="112" height="115" viewBox="0 0 112 115" fill="none" xmlns="http://www.w3.org/2000/svg">
<path d="M30 57C30 27 56 2 56 2C56 2 82 29.5 82 57C82 85 56.1655 113 56.1655 113C56.1655 113 37.7146 94.8153 32 70.7455M21 78L32 71L91 37M69 57.5C69 63.8513 63.4036 69 56.5 69C49.5964 69 44 63.8513 44 57.5C44 51.1487 49.5964 46 56.5 46C63.4036 46 69 51.1487 69 57.5ZM18.2296 87.738C19.961 86.6913 21.2246 84.9668 21.7426 82.9438C22.2605 80.9209 21.9903 78.7652 20.9915 76.9509C19.9926 75.1367 18.3469 73.8125 16.4164 73.2698C14.4859 72.727 12.4287 73.0101 10.6973 74.0568L2 79.3188L9.53232 93L18.2296 87.738ZM101.738 40.9432C100.093 41.9899 98.1384 42.273 96.3044 41.7302C94.4704 41.1875 92.907 39.8633 91.9581 38.0491C91.0092 36.2348 90.7525 34.0792 91.2446 32.0562C91.7366 30.0332 92.9371 28.3087 94.5818 27.262L102.844 22L110 35.6812L101.738 40.9432Z" stroke="#345E40" stroke-width="4" stroke-linecap="round" stroke-linejoin="round"/>
</svg>
