<svg width="99" height="61" viewBox="0 0 99 61" fill="none" xmlns="http://www.w3.org/2000/svg">
<path d="M79.1452 38.8508H68.1041C67.8566 38.851 67.6186 38.7553 67.4402 38.5838C67.2617 38.4123 67.1568 38.1784 67.1472 37.9312C67.1472 37.6776 67.248 37.4344 67.4275 37.255C67.6069 37.0757 67.8503 36.9749 68.1041 36.9749H79.1452C79.399 36.9749 79.6423 37.0757 79.8218 37.255C80.0012 37.4344 80.102 37.6776 80.102 37.9312C80.0925 38.1784 79.9875 38.4123 79.8091 38.5838C79.6307 38.7553 79.3927 38.851 79.1452 38.8508Z" fill="#345E40"/>
<path d="M25.9273 60C23.9984 60 22.1128 59.4283 20.5089 58.3573C18.905 57.2863 17.655 55.764 16.9168 53.983C16.1786 52.202 15.9855 50.2422 16.3618 48.3514C16.7381 46.4607 17.667 44.7239 19.031 43.3608C20.3949 41.9976 22.1328 41.0693 24.0246 40.6932C25.9165 40.3171 27.8775 40.5102 29.6596 41.2479C31.4417 41.9856 32.9649 43.2349 34.0366 44.8378C35.1083 46.4407 35.6803 48.3252 35.6803 50.253C35.6803 52.838 34.6527 55.3172 32.8237 57.1452C30.9947 58.9731 28.514 60 25.9273 60ZM25.9273 42.3818C24.3696 42.3818 22.8469 42.8434 21.5517 43.7083C20.2565 44.5732 19.247 45.8025 18.6509 47.2408C18.0548 48.6791 17.8988 50.2617 18.2027 51.7886C18.5066 53.3154 19.2567 54.7179 20.3582 55.8187C21.4597 56.9195 22.863 57.6692 24.3908 57.9729C25.9186 58.2766 27.5022 58.1208 28.9413 57.525C30.3805 56.9292 31.6105 55.9204 32.476 54.626C33.3414 53.3316 33.8033 51.8097 33.8033 50.253C33.8033 48.1654 32.9735 46.1633 31.4965 44.6872C30.0195 43.2111 28.0162 42.3818 25.9273 42.3818Z" fill="#345E40"/>
<path d="M79.1452 47.053H33.6193C33.4538 47.0535 33.2912 47.0093 33.1487 46.9251C33.0062 46.841 32.8891 46.72 32.8096 46.5749C32.1271 45.349 31.1292 44.3278 29.9192 43.6168C28.7092 42.9058 27.331 42.5309 25.9273 42.5309C24.5237 42.5309 23.1455 42.9058 21.9355 43.6168C20.7255 44.3278 19.7276 45.349 19.0451 46.5749C18.9657 46.72 18.8485 46.841 18.706 46.9251C18.5635 47.0093 18.4009 47.0535 18.2354 47.053H1.9683C1.82923 47.0547 1.69146 47.026 1.56461 46.969C1.43776 46.912 1.32487 46.8281 1.23379 46.7231C1.1427 46.618 1.07561 46.4944 1.03721 46.3608C0.998802 46.2272 0.989996 46.0869 1.0114 45.9496V27.1544C1.07431 22.5528 2.40633 18.0578 4.86084 14.1641C7.31535 10.2704 10.7972 7.129 14.9231 5.08562C23.3143 0.74543 39.8759 1.0029 40.6855 1.0029C41.4952 1.0029 57.9096 0.74543 66.448 5.08562C70.5739 7.129 74.0557 10.2704 76.5102 14.1641C78.9648 18.0578 80.2968 22.5528 80.3597 27.1544V45.9496C80.3922 46.1115 80.3821 46.2792 80.3305 46.4361C80.2789 46.593 80.1874 46.7339 80.0651 46.845C79.9428 46.9562 79.7938 47.0337 79.6326 47.0702C79.4714 47.1066 79.3035 47.1007 79.1452 47.053ZM78.2987 45.03V27.1544C78.2478 22.8617 77.0065 18.6673 74.713 15.0374C72.4194 11.4076 69.1634 8.4847 65.3071 6.59365C57.3575 2.51093 40.7592 2.91552 40.5751 2.91552C40.3911 2.91552 23.756 2.51093 15.7328 6.59365C11.8902 8.49491 8.64929 11.4223 6.36921 15.0513C4.08912 18.6804 2.85887 22.8694 2.81477 27.1544V45.03H17.5362C18.4155 43.6398 19.6326 42.4945 21.074 41.7009C22.5155 40.9072 24.1344 40.491 25.7802 40.491C27.4259 40.491 29.0448 40.9072 30.4863 41.7009C31.9277 42.4945 33.1448 43.6398 34.0241 45.03H78.2987Z" fill="#345E40"/>
<path d="M97.0685 47.0531L79.1452 47.053C79.0156 47.0396 78.8902 47.0001 78.7765 46.9365C78.6628 46.873 78.5632 46.787 78.484 46.6837C78.4047 46.5803 78.3474 46.462 78.3156 46.3358C78.2837 46.2095 78.278 46.0781 78.2987 45.9496C78.2987 45.7058 78.3957 45.4719 78.5682 45.2994C78.7408 45.127 78.9748 45.0301 79.2188 45.0301H97.0685C97.3125 45.0301 97.5465 45.127 97.7191 45.2994C97.8916 45.4719 97.9886 45.7058 97.9886 45.9496C98.0095 46.0839 98.0016 46.2211 97.9653 46.3521C97.9291 46.4831 97.8653 46.6049 97.7782 46.7093C97.6912 46.8137 97.5828 46.8984 97.4604 46.9577C97.338 47.0169 97.2044 47.0495 97.0685 47.0531Z" fill="#345E40"/>
<path d="M64.7183 29.251H62.8413V30.6487H64.7183V29.251Z" fill="#345E40"/>
<path d="M64.7183 22.8877H62.8413V26.0877H64.7183V22.8877Z" fill="#345E40"/>
<path d="M64.7183 18.29H62.8413V19.6876H64.7183V18.29Z" fill="#345E40"/>
<path d="M63.7614 47.053H46.9054C46.658 47.0435 46.424 46.9385 46.2524 46.7602C46.0808 46.5819 45.9851 46.3441 45.9853 46.0967V13.9499C45.9851 13.7025 46.0808 13.4647 46.2524 13.2863C46.424 13.108 46.658 13.0031 46.9054 12.9936H63.7614C64.0151 12.9936 64.2585 13.0943 64.438 13.2737C64.6174 13.453 64.7182 13.6962 64.7182 13.9499L64.7183 18.29C64.7183 18.5436 64.6174 18.7869 64.438 18.9663C64.2585 19.1456 64.0151 19.2464 63.7614 19.2464C63.514 19.2369 63.28 19.1319 63.1084 18.9536C62.9368 18.7753 62.8411 18.5373 62.8413 18.29L62.8413 14.9062H47.8623V45.03H62.8413V30.6853C62.8411 30.438 62.9368 30.2001 63.1084 30.0218C63.28 29.8435 63.514 29.7385 63.7614 29.729C64.0151 29.729 64.2585 29.8298 64.438 30.0091C64.6174 30.1885 64.7182 30.4317 64.7182 30.6853V45.9496C64.7396 46.0869 64.7308 46.2272 64.6924 46.3608C64.654 46.4944 64.587 46.618 64.4959 46.7231C64.4048 46.8281 64.2919 46.912 64.165 46.969C64.0382 47.026 63.9004 47.0546 63.7614 47.053Z" fill="#345E40"/>
<path d="M39.2871 28.0371H15.7329C15.4855 28.0276 15.2515 27.9226 15.0799 27.7443C14.9083 27.566 14.8126 27.3282 14.8128 27.0808C14.8128 23.351 16.2928 19.7734 18.9283 17.1326C21.5638 14.4918 25.1397 13.0033 28.8717 12.9936H39.2871C39.5409 12.9936 39.7843 13.0943 39.9637 13.2737C40.1432 13.453 40.244 13.6962 40.244 13.9499V27.0808C40.244 27.3344 40.1432 27.5776 39.9637 27.757C39.7843 27.9363 39.5409 28.0371 39.2871 28.0371ZM16.6529 26.1612H38.367V14.9062H28.7981C25.7269 14.9067 22.7691 16.0665 20.5171 18.1535C18.2651 20.2405 16.8849 23.1006 16.6529 26.1612Z" fill="#345E40"/>
<path d="M30.4542 28.0371C30.2004 28.0371 29.957 27.9363 29.7776 27.757C29.5981 27.5776 29.4973 27.3344 29.4973 27.0808V13.9499C29.4973 13.6962 29.5981 13.453 29.7776 13.2737C29.957 13.0943 30.2004 12.9936 30.4542 12.9936C30.708 12.9936 30.9514 13.0943 31.1308 13.2737C31.3103 13.453 31.4111 13.6962 31.4111 13.9499V27.0808C31.4111 27.3344 31.3103 27.5776 31.1308 27.757C30.9514 27.9363 30.708 28.0371 30.4542 28.0371Z" fill="#345E40"/>
<path d="M50.7697 32.5244C50.5159 32.5244 50.2725 32.4237 50.0931 32.2443C49.9136 32.065 49.8128 31.8217 49.8128 31.5681V27.6325C49.8128 27.3789 49.9136 27.1356 50.0931 26.9563C50.2725 26.7769 50.5159 26.6762 50.7697 26.6762C51.0235 26.6762 51.2669 26.7769 51.4463 26.9563C51.6258 27.1356 51.7266 27.3789 51.7266 27.6325V31.5681C51.7266 31.8217 51.6258 32.065 51.4463 32.2443C51.2669 32.4237 51.0235 32.5244 50.7697 32.5244Z" fill="#345E40"/>
<path d="M79.1452 47.053H33.6193C33.4538 47.0535 33.2912 47.0093 33.1487 46.9251C33.0062 46.841 32.8891 46.72 32.8096 46.5749C32.1271 45.349 31.1292 44.3278 29.9192 43.6168C28.7092 42.9058 27.331 42.5309 25.9273 42.5309C24.5237 42.5309 23.1455 42.9058 21.9355 43.6168C20.7255 44.3278 19.7276 45.349 19.0451 46.5749C18.9657 46.72 18.8485 46.841 18.706 46.9251C18.5635 47.0093 18.4009 47.0535 18.2354 47.053H1.9683C1.82923 47.0547 1.69146 47.026 1.56461 46.969C1.43776 46.912 1.32487 46.8281 1.23379 46.7231C1.1427 46.618 1.07561 46.4944 1.03721 46.3608C0.998802 46.2273 0.989996 46.0869 1.0114 45.9496V27.1544C1.07431 22.5528 2.40633 18.0578 4.86084 14.1641C7.31535 10.2704 10.7972 7.129 14.9231 5.08562C23.3143 0.74543 39.8759 1.0029 40.6855 1.0029C41.4952 1.0029 57.9096 0.74543 66.448 5.08562C70.5739 7.129 74.0557 10.2704 76.5102 14.1641C78.9648 18.0578 80.2968 22.5528 80.3597 27.1544V45.9496C80.3922 46.1115 80.3821 46.2792 80.3305 46.4361C80.2789 46.593 80.1874 46.7339 80.0651 46.845C79.9428 46.9562 79.7938 47.0337 79.6326 47.0702C79.4714 47.1066 79.3035 47.1007 79.1452 47.053ZM79.1452 47.053L97.0685 47.0531C97.2044 47.0495 97.338 47.0169 97.4604 46.9577C97.5828 46.8984 97.6912 46.8137 97.7782 46.7093C97.8653 46.6049 97.9291 46.4831 97.9653 46.3521C98.0016 46.2211 98.0095 46.0839 97.9886 45.9496C97.9886 45.7058 97.8916 45.4719 97.7191 45.2994C97.5465 45.127 97.3125 45.0301 97.0685 45.0301H79.2188C78.9748 45.0301 78.7408 45.127 78.5682 45.2994C78.3957 45.4719 78.2987 45.7058 78.2987 45.9496C78.278 46.0781 78.2837 46.2095 78.3156 46.3357C78.3474 46.462 78.4047 46.5803 78.484 46.6837C78.5632 46.787 78.6628 46.873 78.7765 46.9365C78.8902 47.0001 79.0156 47.0396 79.1452 47.053ZM62.8413 18.29H64.7183M62.8413 18.29V19.6876H64.7183V18.29M62.8413 18.29C62.8411 18.5373 62.9368 18.7753 63.1084 18.9536C63.28 19.1319 63.514 19.2369 63.7614 19.2464C64.0151 19.2464 64.2585 19.1456 64.438 18.9663C64.6174 18.7869 64.7183 18.5436 64.7183 18.29M62.8413 18.29L62.8413 14.9062H47.8623V45.03H62.8413V30.6853C62.8411 30.4379 62.9368 30.2001 63.1084 30.0218C63.28 29.8435 63.514 29.7385 63.7614 29.729C64.0151 29.729 64.2585 29.8298 64.438 30.0091C64.6174 30.1885 64.7182 30.4317 64.7182 30.6853V45.9496C64.7396 46.0869 64.7308 46.2272 64.6924 46.3608C64.654 46.4944 64.587 46.618 64.4959 46.7231C64.4048 46.8281 64.2919 46.912 64.165 46.969C64.0382 47.026 63.9004 47.0546 63.7614 47.053H46.9054C46.658 47.0435 46.424 46.9385 46.2524 46.7602C46.0808 46.5819 45.9851 46.3441 45.9853 46.0967V13.9499C45.9851 13.7025 46.0808 13.4647 46.2524 13.2863C46.424 13.108 46.658 13.0031 46.9054 12.9936H63.7614C64.0151 12.9936 64.2585 13.0943 64.438 13.2737C64.6174 13.453 64.7182 13.6962 64.7182 13.9499L64.7183 18.29M79.1452 38.8508H68.1041C67.8566 38.851 67.6186 38.7553 67.4402 38.5838C67.2617 38.4123 67.1568 38.1784 67.1472 37.9312C67.1472 37.6776 67.248 37.4344 67.4275 37.255C67.6069 37.0757 67.8503 36.9749 68.1041 36.9749H79.1452C79.399 36.9749 79.6423 37.0757 79.8218 37.255C80.0012 37.4344 80.102 37.6776 80.102 37.9312C80.0925 38.1784 79.9875 38.4123 79.8091 38.5838C79.6307 38.7553 79.3927 38.851 79.1452 38.8508ZM25.9273 60C23.9984 60 22.1128 59.4283 20.5089 58.3573C18.905 57.2863 17.655 55.764 16.9168 53.983C16.1786 52.202 15.9855 50.2422 16.3618 48.3514C16.7381 46.4607 17.667 44.7239 19.031 43.3608C20.3949 41.9976 22.1328 41.0693 24.0246 40.6932C25.9165 40.3171 27.8775 40.5102 29.6596 41.2479C31.4417 41.9856 32.9649 43.2349 34.0366 44.8378C35.1083 46.4407 35.6803 48.3252 35.6803 50.253C35.6803 52.838 34.6527 55.3172 32.8237 57.1452C30.9947 58.9731 28.514 60 25.9273 60ZM25.9273 42.3818C24.3696 42.3818 22.8469 42.8434 21.5517 43.7083C20.2565 44.5732 19.247 45.8025 18.6509 47.2408C18.0548 48.6791 17.8988 50.2617 18.2027 51.7886C18.5066 53.3154 19.2567 54.7179 20.3582 55.8187C21.4597 56.9195 22.863 57.6692 24.3908 57.9729C25.9186 58.2766 27.5022 58.1208 28.9413 57.525C30.3805 56.9292 31.6105 55.9204 32.476 54.626C33.3414 53.3316 33.8033 51.8097 33.8033 50.253C33.8033 48.1654 32.9735 46.1633 31.4965 44.6872C30.0195 43.2111 28.0162 42.3818 25.9273 42.3818ZM78.2987 45.03V27.1544C78.2478 22.8617 77.0065 18.6673 74.713 15.0374C72.4194 11.4076 69.1634 8.4847 65.3071 6.59365C57.3575 2.51093 40.7592 2.91552 40.5751 2.91552C40.3911 2.91552 23.756 2.51093 15.7328 6.59365C11.8902 8.49491 8.64929 11.4223 6.36921 15.0513C4.08912 18.6804 2.85887 22.8694 2.81477 27.1544V45.03H17.5362C18.4155 43.6398 19.6326 42.4945 21.074 41.7009C22.5155 40.9072 24.1344 40.491 25.7802 40.491C27.4259 40.491 29.0448 40.9072 30.4863 41.7009C31.9277 42.4945 33.1448 43.6398 34.0241 45.03H78.2987ZM62.8413 29.251H64.7183V30.6487H62.8413V29.251ZM62.8413 22.8877H64.7183V26.0877H62.8413V22.8877ZM39.2871 28.0371H15.7329C15.4855 28.0276 15.2515 27.9226 15.0799 27.7443C14.9083 27.566 14.8126 27.3282 14.8128 27.0808C14.8128 23.351 16.2928 19.7734 18.9283 17.1326C21.5638 14.4918 25.1397 13.0033 28.8717 12.9936H39.2871C39.5409 12.9936 39.7843 13.0943 39.9637 13.2737C40.1432 13.453 40.244 13.6962 40.244 13.9499V27.0808C40.244 27.3344 40.1432 27.5776 39.9637 27.757C39.7843 27.9363 39.5409 28.0371 39.2871 28.0371ZM16.6529 26.1612H38.367V14.9062H28.7981C25.7269 14.9067 22.7691 16.0665 20.5171 18.1535C18.2651 20.2405 16.8849 23.1006 16.6529 26.1612ZM30.4542 28.0371C30.2004 28.0371 29.957 27.9363 29.7776 27.757C29.5981 27.5776 29.4973 27.3344 29.4973 27.0808V13.9499C29.4973 13.6962 29.5981 13.453 29.7776 13.2737C29.957 13.0943 30.2004 12.9936 30.4542 12.9936C30.708 12.9936 30.9514 13.0943 31.1308 13.2737C31.3103 13.453 31.4111 13.6962 31.4111 13.9499V27.0808C31.4111 27.3344 31.3103 27.5776 31.1308 27.757C30.9514 27.9363 30.708 28.0371 30.4542 28.0371ZM50.7697 32.5244C50.5159 32.5244 50.2725 32.4237 50.0931 32.2443C49.9136 32.065 49.8128 31.8217 49.8128 31.5681V27.6325C49.8128 27.3789 49.9136 27.1356 50.0931 26.9563C50.2725 26.7769 50.5159 26.6762 50.7697 26.6762C51.0235 26.6762 51.2669 26.7769 51.4463 26.9563C51.6258 27.1356 51.7266 27.3789 51.7266 27.6325V31.5681C51.7266 31.8217 51.6258 32.065 51.4463 32.2443C51.2669 32.4237 51.0235 32.5244 50.7697 32.5244Z" stroke="#345E40"/>
</svg>
