<svg width="43" height="43" viewBox="0 0 43 43" fill="none" xmlns="http://www.w3.org/2000/svg">
<path d="M0.0811768 17.4786C0.0811768 16.7329 0.0811768 15.9871 0.0811768 15.2414C0.219556 14.4011 0.291646 13.5427 0.507916 12.7232C2.20659 6.29478 6.28092 2.22875 12.7276 0.573172C13.5222 0.369332 14.35 0.294759 15.1621 0.160522C15.9078 0.160522 16.6536 0.160522 17.3994 0.160522C17.5046 0.184552 17.6098 0.221838 17.7167 0.230953C19.6341 0.390048 21.477 0.855731 23.1922 1.72246C28.6959 4.50579 31.8 8.96459 32.4115 15.1196C32.4512 15.5214 32.5813 15.6905 32.9708 15.8239C37.5837 17.4007 40.5924 20.5462 41.992 25.208C42.2472 26.059 42.34 26.9597 42.5074 27.8372C42.5074 28.5274 42.5074 29.2185 42.5074 29.9087C42.4825 30.0148 42.4461 30.12 42.4361 30.2277C42.2563 32.1054 41.7069 33.8687 40.7839 35.5102C40.6422 35.7621 40.6273 35.9783 40.7027 36.246C41.2487 38.18 41.784 40.1173 42.3201 42.0546C42.3582 42.1921 42.3831 42.3338 42.4212 42.5054C42.3176 42.4838 42.2646 42.4764 42.2132 42.4623C40.2361 41.9162 38.2566 41.3784 36.2844 40.8142C35.9265 40.7122 35.6564 40.7711 35.3191 40.9161C34.2477 41.3768 33.1639 41.8184 32.0535 42.1706C31.3401 42.3968 30.5728 42.454 29.8295 42.5866C29.1393 42.5866 28.4482 42.5866 27.7579 42.5866C27.6519 42.5617 27.5475 42.5236 27.4398 42.5137C21.9974 41.9916 17.3413 38.2024 15.7057 32.9415C15.612 32.6407 15.4819 32.5338 15.1728 32.5131C12.7135 32.3482 10.4099 31.6571 8.26132 30.4432C8.12874 30.3686 7.91744 30.3636 7.76332 30.4051C6.28589 30.7995 4.81343 31.2121 3.33931 31.6182C2.29608 31.9057 1.25285 32.1916 0.160724 32.4915C0.203813 32.3026 0.227843 32.1717 0.263473 32.0432C0.901511 29.7331 1.53375 27.4204 2.18919 25.1152C2.29111 24.758 2.27371 24.4821 2.08644 24.1507C1.33571 22.824 0.789648 21.4113 0.485544 19.9148C0.321477 19.1085 0.213756 18.2907 0.0811768 17.4786ZM3.71219 28.9185C3.83897 28.8887 3.90278 28.8763 3.96492 28.8589C5.30729 28.4893 6.65297 28.1305 7.98953 27.7419C8.3127 27.6474 8.55382 27.6905 8.8339 27.8687C11.9586 29.8557 15.3518 30.5053 18.982 29.8043C26.4794 28.3567 31.3989 20.8337 29.6381 13.3521C28.4159 8.16082 25.1528 4.66986 20.0294 3.20403C14.9367 1.74649 10.3544 2.98362 6.57839 6.70826C1.9522 11.2723 1.2661 18.27 4.7778 23.8192C4.94601 24.0852 4.99324 24.3147 4.90375 24.6246C4.49855 26.0275 4.11987 27.4386 3.71219 28.9185ZM32.3767 18.2352C31.8845 21.9888 30.3515 25.1815 27.7149 27.8131C25.0807 30.444 21.8855 31.9712 18.165 32.4559C18.2048 32.5876 18.228 32.6771 18.2586 32.7641C19.7385 36.9445 23.9678 39.9955 28.415 40.0957C30.8164 40.1504 33.0247 39.5356 35.0274 38.2048C35.2636 38.0482 35.4716 38.0002 35.7558 38.0888C36.5314 38.33 37.3194 38.533 38.1033 38.7476C38.3444 38.8139 38.5897 38.8677 38.8739 38.9373C38.5955 37.9289 38.3568 36.9793 38.0643 36.0471C37.9326 35.627 37.9864 35.313 38.2251 34.9393C41.1418 30.3727 40.4508 24.536 36.5571 20.7699C35.373 19.6247 33.9991 18.7804 32.3767 18.2352Z" fill="#345E40"/>
<path d="M13.7706 12.5747C12.9478 12.5747 12.1631 12.5747 11.3403 12.5747C11.2914 11.7262 11.5052 10.9514 11.912 10.2421C12.9544 8.42409 14.5487 7.49601 16.6376 7.64516C18.6876 7.79183 20.1675 8.88729 20.905 10.8155C21.6549 12.7761 21.2406 14.5676 19.8005 16.089C19.2329 16.6889 18.6031 17.235 17.9725 17.7711C17.6394 18.0545 17.4745 18.3512 17.5176 18.7978C17.5582 19.2204 17.5259 19.6488 17.5259 20.1029C16.6981 20.1029 15.9051 20.1029 15.0392 20.1029C15.0392 19.7068 15.0359 19.3 15.04 18.8939C15.045 18.3014 14.8901 17.6361 15.1096 17.1364C15.3292 16.6367 15.9233 16.3003 16.3567 15.8967C16.9227 15.3697 17.5077 14.8634 18.0554 14.3182C18.7987 13.5774 18.9702 12.4579 18.5244 11.5232C18.0794 10.5901 17.0867 10.0225 16.0576 10.1128C15.0351 10.2032 14.1634 10.9357 13.8891 11.9441C13.8361 12.1397 13.8129 12.3452 13.7706 12.5747Z" fill="#345E40"/>
<path d="M17.4884 25.0901C16.6747 25.0901 15.8901 25.0901 15.0706 25.0901C15.0706 24.2764 15.0706 23.4726 15.0706 22.6414C15.866 22.6414 16.6598 22.6414 17.4884 22.6414C17.4884 23.4403 17.4884 24.2449 17.4884 25.0901Z" fill="#345E40"/>
</svg>
