<svg width="103" height="63" viewBox="0 0 103 63" fill="none" xmlns="http://www.w3.org/2000/svg">
<path fill-rule="evenodd" clip-rule="evenodd" d="M59.2579 0.410738C59.9424 1.01237 60.0095 2.05493 59.4079 2.73937C57.8444 4.51807 54.8817 7.14486 53.6162 8.22305C46.1482 14.8108 35.3913 21.039 25.5002 25.7618C15.6456 30.4673 6.3834 33.8052 1.88832 34.4608C0.986585 34.5923 0.148985 33.9679 0.0174859 33.0661C-0.114013 32.1644 0.510382 31.3268 1.41211 31.1953C5.37865 30.6169 14.2568 27.4735 24.0783 22.7839C33.8584 18.114 44.3076 12.0371 51.4436 5.73912L51.4545 5.72944L51.4657 5.71995C52.7281 4.64504 55.5362 2.14554 56.9293 0.560674C57.5309 -0.123763 58.5735 -0.190892 59.2579 0.410738Z" fill="#345E40"/>
<path fill-rule="evenodd" clip-rule="evenodd" d="M42.8998 0.410738C42.2153 1.01237 42.1482 2.05493 42.7498 2.73937C44.3133 4.51807 47.276 7.14486 48.5415 8.22305C56.0095 14.8108 66.7664 21.039 76.6575 25.7618C86.5121 30.4673 95.7743 33.8052 100.269 34.4608C101.171 34.5923 102.009 33.9679 102.14 33.0661C102.272 32.1644 101.647 31.3268 100.746 31.1953C96.779 30.6169 87.9009 27.4735 78.0794 22.7839C68.2993 18.114 57.8501 12.0371 50.7141 5.73912L50.7032 5.72944L50.692 5.71995C49.4296 4.64504 46.6215 2.14554 45.2284 0.560674C44.6268 -0.123763 43.5842 -0.190892 42.8998 0.410738Z" fill="#345E40"/>
<path fill-rule="evenodd" clip-rule="evenodd" d="M82.1251 25.6018C81.2164 25.5335 80.4244 26.2149 80.3562 27.1236C80.3122 27.7105 80.404 28.4991 80.5367 29.3104C80.6771 30.1686 80.8914 31.2105 81.1618 32.3778C81.703 34.7152 82.4842 37.6214 83.3946 40.6933C85.2097 46.8179 87.5741 53.7199 89.6312 58.1578C89.7189 58.3468 89.7318 58.7248 89.505 59.1239C89.2791 59.5216 89.0219 59.5971 88.924 59.5971H64.3475C61.5041 59.5971 59.0517 57.7197 58.3829 55.0144C57.1325 49.9563 55.7682 43.8883 54.7152 39.0773C54.189 36.6734 53.7411 34.5864 53.4249 33.1006C53.2668 32.3578 53.1416 31.7653 53.056 31.3587L52.925 30.7349L52.9246 30.733C52.9246 30.733 52.9245 30.7325 51.5302 31.0235L52.9246 30.733C52.7384 29.841 51.8642 29.2682 50.9721 29.4544C50.0801 29.6406 49.5079 30.5147 49.6941 31.4068L51.1552 31.1018C49.6941 31.4068 49.6941 31.4068 49.6941 31.4068L49.8268 32.0388C49.9129 32.4475 50.0386 33.0423 50.1972 33.7876C50.5145 35.2783 50.9637 37.3716 51.4915 39.7829C52.5464 44.6024 53.9181 50.7047 55.1794 55.8064C56.2259 60.0395 60.0437 62.8971 64.3475 62.8971H88.924C90.5409 62.8971 91.7465 61.8589 92.3743 60.7541C93.0012 59.6505 93.2588 58.1369 92.6252 56.77C90.67 52.5519 88.3594 45.8321 86.5585 39.7556C85.6609 36.7269 84.8988 33.8877 84.3767 31.6333C84.1153 30.5046 83.918 29.5389 83.7935 28.7778C83.6613 27.9697 83.6352 27.527 83.647 27.3706C83.7152 26.4619 83.0338 25.67 82.1251 25.6018Z" fill="#345E40"/>
<path fill-rule="evenodd" clip-rule="evenodd" d="M20.2271 25.6015C21.136 25.5349 21.9267 26.2177 21.9933 27.1265C22.036 27.7091 21.9468 28.495 21.8169 29.308C21.6796 30.1669 21.47 31.2102 21.2054 32.3796C20.6758 34.7212 19.9115 37.6329 19.0208 40.71C17.245 46.8448 14.9328 53.7544 12.9238 58.1834C12.8379 58.3729 12.8283 58.745 13.052 59.1345C13.2747 59.5223 13.5276 59.5971 13.6269 59.5971H37.3972C40.2554 59.5971 42.7182 57.6999 43.3752 54.9759C44.5948 49.9189 45.9237 43.8623 46.9492 39.0628C47.4616 36.6645 47.8976 34.5832 48.2054 33.1015C48.3593 32.3607 48.4812 31.77 48.5645 31.3646L48.6924 30.7407C48.6924 30.7407 48.6925 30.7402 50.3093 31.0696C51.926 31.3991 51.926 31.3993 51.926 31.3993L51.7969 32.0292C51.7131 32.4366 51.5908 33.0296 51.4364 33.7728C51.1276 35.2592 50.6903 37.3468 50.1763 39.7523C49.1491 44.5601 47.813 50.6501 46.5832 55.7496C45.5557 60.0098 41.7235 62.8971 37.3972 62.8971H13.6269C12.0224 62.8971 10.8206 61.8751 10.1905 60.7781C9.56133 59.6829 9.3007 58.1823 9.91856 56.8202C11.8284 52.6097 14.0886 45.8808 15.8509 39.7924C16.7293 36.7579 17.4755 33.9119 17.9867 31.6516C18.2427 30.52 18.4361 29.5512 18.5582 28.7873C18.6876 27.9774 18.714 27.5295 18.7021 27.3677C18.6355 26.4589 19.3183 25.6681 20.2271 25.6015ZM50.6387 29.4528C51.5316 29.6348 52.108 30.5063 51.926 31.3993L50.3093 31.0696L48.6924 30.7407C48.8743 29.8478 49.7458 29.2709 50.6387 29.4528Z" fill="#345E40"/>
</svg>
