<svg width="116" height="116" viewBox="0 0 116 116" fill="none" xmlns="http://www.w3.org/2000/svg">
<path d="M12.3169 27L4.32587 50.749C3.99759 51.9894 3.9163 53.2831 4.08672 54.5553C4.25713 55.8276 4.67588 57.0532 5.31877 58.1615C5.96166 59.2698 6.81595 60.2389 7.83241 61.0127C8.84887 61.7866 10.0074 62.35 11.241 62.6703C13.248 63.207 15.3725 63.0861 17.3068 62.325C19.2411 61.5639 20.8848 60.2022 22 58.437M77 56H57.805L46 46L41 41M77 56C78.3261 56 79.5978 55.4732 80.5355 54.5355C81.4732 53.5978 82 52.3261 82 51C82 49.6739 81.4732 48.4022 80.5355 47.4645C79.5978 46.5268 78.3261 46 77 46M77 56V107M77 46V29M77 46H62.5164C62.5164 46 48.0327 28.4703 41.2447 26.3067H41.1385C39.2828 25.82 37.3297 25.9142 35.5254 26.5773C33.7212 27.2405 32.1465 28.4429 31 30.033M77 107L59 108M77 107L114 114M18 38C16.0264 37.2771 14.3462 35.7683 13.266 33.7489C12.1858 31.7296 11.7776 29.3343 12.1158 27M12 27C12.0562 26.5588 12.1468 26.1228 12.2711 25.6962C12.4556 25.1067 12.6999 24.5383 13 24M31 30C30.6315 30.3109 30.329 30.6639 30 31C29.5309 31.7934 29.1742 32.6642 28.943 33.581L22 58M30.8976 30C31.2236 27.79 30.7657 25.536 29.6025 23.6259C28.4394 21.7157 26.6438 20.2689 24.5248 19.5343C22.4058 18.7997 20.0958 18.8232 17.9923 19.601C15.8889 20.3787 14.1235 21.8619 13 23.7954M45.6933 46L41 59.6276L57.7265 75.1838C58.5195 75.9212 59.1329 76.8211 59.5219 77.8178C59.9108 78.8145 60.0656 79.883 59.9747 80.9451L58.1643 108M21.5045 58C19.8184 63.8919 22.5547 68.6372 26.8036 72.3104C34.7378 79.1504 48 82.2974 48 82.2974V110L21 112L32.9154 89.2522C33.625 88.1386 33.9999 86.864 34 85.5651V78M22 65V84.532L11 113L2 114M55 11.5C55 16.7467 50.7467 21 45.5 21C40.2533 21 36 16.7467 36 11.5C36 6.25329 40.2533 2 45.5 2C50.7467 2 55 6.25329 55 11.5Z" stroke="#345E40" stroke-width="4" stroke-linecap="round" stroke-linejoin="round"/>
</svg>
