<svg width="79" height="59" viewBox="0 0 79 59" fill="none" xmlns="http://www.w3.org/2000/svg">
<path fill-rule="evenodd" clip-rule="evenodd" d="M31.0252 0.187508C31.8504 0.613857 32.1747 1.6304 31.7496 2.45802L3.17541 58.0859C2.75029 58.9135 1.73667 59.2388 0.911438 58.8124C0.0862029 58.3861 -0.238154 57.3695 0.186968 56.5419L28.7612 0.914071C29.1863 0.086452 30.1999 -0.238842 31.0252 0.187508Z" fill="#345E40"/>
<path fill-rule="evenodd" clip-rule="evenodd" d="M22.7623 0.187508C23.5875 -0.238842 24.6012 0.086452 25.0263 0.914071L53.6005 56.5419C54.0256 57.3695 53.7013 58.3861 52.876 58.8124C52.0508 59.2388 51.0372 58.9135 50.6121 58.0859L22.0378 2.45802C21.6127 1.6304 21.9371 0.613857 22.7623 0.187508Z" fill="#345E40"/>
<path fill-rule="evenodd" clip-rule="evenodd" d="M56.2378 0.187537C57.063 0.613917 57.3873 1.63047 56.9621 2.45808L53.6005 9.00192C53.1753 9.82953 52.1617 10.1548 51.3365 9.7284C50.5112 9.30202 50.1869 8.28547 50.6121 7.45786L53.9738 0.914015C54.3989 0.0864116 55.4125 -0.238844 56.2378 0.187537Z" fill="#345E40"/>
<path fill-rule="evenodd" clip-rule="evenodd" d="M51.3365 6.73141C52.1618 6.30507 53.1754 6.63037 53.6005 7.45799L78.813 56.542C79.2382 57.3696 78.9138 58.3861 78.0886 58.8125C77.2633 59.2388 76.2497 58.9135 75.8246 58.0859L50.612 9.00192C50.1869 8.1743 50.5113 7.15776 51.3365 6.73141Z" fill="#345E40"/>
<path fill-rule="evenodd" clip-rule="evenodd" d="M47.9748 0.187537C48.8 -0.238844 49.8136 0.0864116 50.2388 0.914015L53.6005 7.45799C54.0257 8.28559 53.7013 9.30202 52.8761 9.7284C52.0509 10.1548 51.0372 9.82952 50.612 9.00192L47.2504 2.45808C46.8253 1.63047 47.1496 0.613917 47.9748 0.187537Z" fill="#345E40"/>
<path fill-rule="evenodd" clip-rule="evenodd" d="M27.336 28.7165C28.2316 28.9615 28.7596 29.8882 28.5153 30.7864C28.2328 31.8253 27.96 32.8364 27.6947 33.8196C25.6243 41.4923 24.0149 47.4562 21.8694 51.564C20.6322 53.9328 19.1493 55.8309 17.174 57.1201C15.1844 58.4187 12.8489 58.9996 10.0854 58.9996H1.68118C0.752885 58.9996 0.000348811 58.2449 0.000348811 57.3139C0.000348811 56.3829 0.752885 55.6282 1.68118 55.6282H10.0854C12.3643 55.6282 14.0208 55.1556 15.3404 54.2944C16.6743 53.4238 17.8176 52.0559 18.8915 49.9997C20.8534 46.2436 22.3562 40.6827 24.4677 32.8695C24.7261 31.9134 24.9936 30.9236 25.2721 29.8993C25.5164 29.0011 26.4404 28.4716 27.336 28.7165Z" fill="#345E40"/>
<path fill-rule="evenodd" clip-rule="evenodd" d="M26.4107 28.7282C27.2999 28.4607 28.2369 28.9667 28.5037 29.8584C29.4433 32.9995 30.2129 35.9219 30.9075 38.5592C31.1514 39.4854 31.386 40.3764 31.6156 41.2294C32.5092 44.5507 33.3195 47.2737 34.3068 49.4522C35.2872 51.6153 36.3863 53.1115 37.7822 54.0872C39.163 55.0524 41.0068 55.6282 43.7021 55.6282H77.3188C78.2471 55.6282 78.9996 56.3829 78.9996 57.3139C78.9996 58.2449 78.2471 58.9996 77.3188 58.9996H43.7021C40.5144 58.9996 37.946 58.3111 35.8601 56.8531C33.7893 55.4057 32.3671 53.3198 31.2465 50.8473C30.1328 48.39 29.2622 45.4238 28.37 42.1077C28.1322 41.2242 27.8925 40.314 27.6455 39.376C26.9543 36.7516 26.2059 33.9098 25.2838 30.8272C25.017 29.9355 25.5216 28.9957 26.4107 28.7282Z" fill="#345E40"/>
<path fill-rule="evenodd" clip-rule="evenodd" d="M33.6171 8.42883C33.6171 7.49785 34.3696 6.74314 35.2979 6.74314H52.1063C53.0346 6.74314 53.7871 7.49785 53.7871 8.42883C53.7871 9.35981 53.0346 10.1145 52.1063 10.1145H35.2979C34.3696 10.1145 33.6171 9.35981 33.6171 8.42883Z" fill="#345E40"/>
</svg>
