<svg width="108" height="108" viewBox="0 0 108 108" fill="none" xmlns="http://www.w3.org/2000/svg">
<path d="M25.2143 89.2857H2M38.2143 89.2857H106M70.7143 64.9293L61.5116 77.6786L52.1307 63.75H42.7498L28.6785 38.2143L7.57143 89.2857M81.8571 89.2857L70.7143 65.1429M38.2143 39.1712L47.2706 18.7143L66.0714 57.7143M61.4286 46.1316L69.08 33.5714L98.5714 89.2857M56.7857 38.2143L52.1428 43.1667L47.5 38.2143L42.8571 45.6429M46.5714 18.7143V2L61.4286 6.45714L46.5714 13.1429M14.0714 103.214C14.0714 103.214 26.6178 100.893 29.1271 96.25C32.2988 90.3768 24.1085 89.2857 24.1085 89.2857M35.4286 106C35.4286 106 39.1429 103.612 39.1429 96.449C39.1429 94.0612 37.2857 89.2857 37.2857 89.2857" stroke="#345E40" stroke-width="4" stroke-linecap="round" stroke-linejoin="round"/>
</svg>
